<svg xmlns="http://www.w3.org/2000/svg" width="1000" height="1000" viewBox="0 0 1000 1000">
<g>
<path d="M 94.22 883.72 C58.68,912.20 49.91,918.59 51.17,915.07 C51.61,913.82 64.83,899.37 96.98,865.00 C111.64,849.33 127.43,832.38 132.07,827.35 C152.89,804.78 177.49,778.37 178.97,777.00 C179.87,776.17 185.72,769.97 191.98,763.21 L 203.35 750.92 L 201.99 744.21 C198.99,729.34 201.46,715.66 209.28,703.99 C214.53,696.14 221.00,691.05 231.00,686.86 C239.95,683.12 251.83,682.12 261.50,684.28 L 267.50 685.63 L 310.50 643.02 C375.33,578.80 426.88,528.81 490.01,468.99 C527.59,433.37 576.68,387.22 596.50,368.87 C642.21,326.55 668.73,302.09 676.07,295.50 C680.35,291.65 688.07,284.67 693.22,280.00 C729.08,247.47 765.49,214.62 777.44,204.03 C785.17,197.17 799.32,184.57 808.87,176.03 C818.42,167.49 828.32,158.72 830.87,156.54 C833.42,154.36 839.78,148.72 845.00,143.99 C850.22,139.27 861.70,129.08 870.50,121.35 C879.30,113.62 892.58,101.94 900.00,95.40 C922.98,75.14 924.00,74.37 924.00,77.14 C924.00,78.78 923.02,79.90 860.85,149.05 C816.03,198.91 810.21,205.35 785.04,232.89 C774.29,244.65 760.38,259.95 754.11,266.89 C721.35,303.19 646.81,380.99 586.02,442.36 C555.60,473.06 498.46,528.97 450.00,575.46 C425.87,598.61 368.51,651.36 337.95,678.50 C331.14,684.55 323.08,691.77 320.04,694.54 C316.99,697.31 310.76,702.90 306.18,706.96 C299.52,712.87 297.97,714.76 298.43,716.42 C305.35,741.53 294.69,766.70 272.54,777.54 C260.53,783.43 248.27,784.15 234.15,779.81 C230.66,778.74 227.24,778.08 226.55,778.34 C225.39,778.79 194.07,803.59 152.00,837.39 C142.38,845.12 116.37,865.97 94.22,883.72 Z" fill="rgb(34,164,57)"/>
<path d="M 229.00 664.67 C225.43,665.54 219.70,667.72 216.27,669.50 C211.80,671.83 209.77,672.43 209.10,671.62 C203.18,664.48 182.88,624.58 176.35,607.24 C155.78,552.63 150.25,493.84 160.09,434.50 C165.15,404.03 175.73,372.67 191.48,341.50 C205.90,312.96 225.04,286.38 248.91,261.73 C270.07,239.89 286.98,226.10 311.28,210.87 C355.74,183.01 404.83,165.95 456.39,160.44 C474.87,158.47 514.25,158.49 532.09,160.48 C583.50,166.23 628.67,181.65 673.50,208.75 C683.90,215.03 695.42,222.52 697.87,224.59 C699.21,225.72 674.33,249.00 671.78,249.00 C671.06,249.00 668.03,247.35 665.04,245.34 C645.75,232.35 622.17,220.74 596.00,211.35 C527.05,186.60 442.67,189.22 374.00,218.23 C320.38,240.89 271.99,280.59 241.44,327.00 C237.36,333.21 223.00,357.78 223.00,358.56 C223.00,358.77 221.23,362.55 219.07,366.97 C210.81,383.88 202.49,409.02 197.88,431.00 C191.23,462.75 190.31,505.75 195.59,538.00 C202.09,577.69 218.63,620.16 240.70,653.80 C242.61,656.72 243.93,659.73 243.64,660.50 C243.35,661.26 241.39,662.16 239.30,662.49 C237.21,662.81 232.57,663.80 229.00,664.67 ZM 516.50 823.95 C483.32,825.96 454.30,823.97 423.50,817.59 C403.55,813.45 402.34,813.14 386.00,807.79 C358.85,798.90 312.00,776.57 312.00,772.52 C312.00,771.80 313.54,767.90 315.42,763.85 C317.30,759.81 319.62,752.79 320.57,748.25 C321.63,743.18 322.78,740.00 323.55,740.00 C324.25,740.00 330.82,743.45 338.16,747.67 C361.03,760.83 387.85,772.24 410.50,778.45 C426.85,782.93 439.12,785.31 460.01,788.05 C474.51,789.94 479.27,790.13 499.50,789.56 C548.59,788.19 590.78,778.12 630.50,758.31 C650.73,748.22 657.72,743.80 683.00,725.11 C690.63,719.47 707.99,703.38 716.89,693.71 C738.48,670.23 752.02,650.90 765.03,625.00 C779.29,596.61 788.05,569.01 793.11,536.50 C795.86,518.84 796.85,479.65 795.01,461.50 C792.52,437.05 786.48,411.02 777.84,387.50 C772.36,372.56 759.52,346.66 751.58,334.50 C747.99,329.00 745.04,323.65 745.02,322.62 C745.00,320.91 767.33,295.98 768.85,296.01 C769.54,296.03 780.67,312.44 783.43,317.50 C784.33,319.15 786.43,322.75 788.09,325.50 C792.84,333.34 804.44,357.44 809.03,369.00 C820.18,397.08 828.14,430.08 831.09,460.50 C832.60,476.00 831.68,522.84 829.60,536.00 C824.25,569.99 815.50,601.36 804.78,625.00 C786.40,665.54 766.85,693.92 735.56,725.51 C709.46,751.86 683.90,770.55 651.12,787.26 C608.12,809.17 564.55,821.05 516.50,823.95 Z" fill="rgb(215,170,43)"/>
<path d="M 229.00 664.67 C229.08,664.65 229.16,664.63 229.24,664.61 C218.52,667.54 209.96,672.34 201.99,679.71 C191.36,689.55 185.33,699.47 181.96,712.65 C180.91,716.75 179.79,720.53 179.47,721.05 C178.55,722.54 176.59,722.17 175.30,720.25 C174.65,719.29 172.49,716.25 170.50,713.50 C157.27,695.18 149.80,682.44 137.08,656.50 C118.46,618.53 107.77,581.96 101.87,536.00 C98.40,509.04 98.98,463.26 103.13,436.50 C117.45,344.12 159.56,266.53 229.00,204.55 C256.53,179.97 285.11,160.84 319.12,144.23 C341.94,133.07 369.60,122.88 391.50,117.55 C397.55,116.08 405.20,114.21 408.50,113.39 C430.05,108.02 457.49,105.50 494.00,105.51 C531.38,105.53 557.04,108.04 582.00,114.11 C608.85,120.64 607.48,120.23 631.59,128.88 C652.37,136.34 678.50,148.65 693.69,158.12 C698.88,161.35 703.38,164.00 703.69,164.00 C704.79,164.00 732.54,182.98 735.81,185.97 C737.63,187.63 738.84,189.44 738.51,189.99 C737.76,191.19 697.15,228.04 683.12,240.25 C682.01,241.22 680.91,242.15 679.87,243.02 C687.91,236.04 698.76,225.35 697.87,224.59 C695.42,222.52 683.90,215.03 673.50,208.75 C628.67,181.65 583.50,166.23 532.09,160.48 C514.25,158.49 474.87,158.47 456.39,160.44 C404.83,165.95 355.74,183.01 311.28,210.87 C286.98,226.10 270.07,239.89 248.91,261.73 C225.04,286.38 205.90,312.96 191.48,341.50 C175.73,372.67 165.15,404.03 160.09,434.50 C150.25,493.84 155.78,552.63 176.35,607.24 C182.88,624.58 203.18,664.48 209.10,671.62 C209.77,672.43 211.80,671.83 216.27,669.50 C219.70,667.72 225.43,665.54 229.00,664.67 ZM 516.50 823.95 C564.55,821.05 608.12,809.17 651.12,787.26 C683.90,770.55 709.46,751.86 735.56,725.51 C766.85,693.92 786.40,665.54 804.78,625.00 C815.50,601.36 824.25,569.99 829.60,536.00 C831.68,522.84 832.60,476.00 831.09,460.50 C828.14,430.08 820.18,397.08 809.03,369.00 C804.44,357.44 792.84,333.34 788.09,325.50 C786.43,322.75 784.33,319.15 783.43,317.50 C780.67,312.44 769.54,296.03 768.85,296.01 C767.37,295.98 746.25,319.52 745.08,322.42 C745.84,319.93 755.34,309.35 786.46,276.20 C797.06,264.90 806.19,256.00 807.16,256.00 C808.27,256.00 811.98,260.48 817.31,268.25 C855.88,324.43 878.88,387.02 885.58,454.00 C887.91,477.20 887.12,522.46 884.05,542.50 C876.49,591.82 865.06,628.24 844.68,667.98 C818.46,719.10 779.41,764.83 730.98,801.12 C707.03,819.07 679.34,835.17 652.73,846.64 C613.51,863.53 567.02,875.08 526.50,877.99 C513.58,878.91 478.22,879.10 466.50,878.30 C454.47,877.48 431.08,874.81 423.62,873.42 C376.10,864.51 328.85,847.18 291.50,824.97 C274.35,814.78 261.00,805.80 261.00,804.47 C261.00,803.84 264.86,802.35 269.58,801.15 C280.65,798.35 285.95,795.91 294.26,789.78 C303.23,783.17 310.14,774.87 314.84,765.13 C313.23,768.69 312.00,771.87 312.00,772.52 C312.00,776.57 358.85,798.90 386.00,807.79 C402.34,813.14 403.55,813.45 423.50,817.59 C454.30,823.97 483.32,825.96 516.50,823.95 ZM 319.18 753.58 C319.53,752.32 319.85,751.04 320.14,749.75 C320.49,748.19 320.84,746.78 321.18,745.54 C320.98,746.37 320.77,747.28 320.57,748.25 C320.24,749.81 319.76,751.66 319.18,753.58 ZM 745.03 322.66 C745.11,323.78 748.03,329.07 751.58,334.50 C747.99,329.00 745.04,323.70 745.02,322.71 C745.02,322.70 745.02,322.68 745.03,322.66 ZM 323.56 740.00 L 323.57 740.00 C324.13,740.00 328.57,742.28 334.15,745.40 C328.60,742.30 324.17,740.03 323.56,740.00 Z" fill="rgb(243,196,64)"/>
<path d="M 0.00 500.00 L 0.00 0.00 L 500.00 0.00 L 1000.00 0.00 L 1000.00 500.00 L 1000.00 1000.00 L 500.00 1000.00 L 0.00 1000.00 L 0.00 500.00 ZM 94.22 883.72 C116.37,865.97 142.38,845.12 152.00,837.39 C194.07,803.59 225.39,778.79 226.55,778.34 C227.24,778.08 230.66,778.74 234.15,779.81 C248.27,784.15 260.53,783.43 272.54,777.54 C294.69,766.70 305.35,741.53 298.43,716.42 C297.97,714.76 299.52,712.87 306.18,706.96 C310.76,702.90 316.99,697.31 320.04,694.54 C323.08,691.77 331.14,684.55 337.95,678.50 C368.51,651.36 425.87,598.61 450.00,575.46 C498.46,528.97 555.60,473.06 586.02,442.36 C646.81,380.99 721.35,303.19 754.11,266.89 C760.38,259.95 774.29,244.65 785.04,232.89 C810.21,205.35 816.03,198.91 860.85,149.05 C923.02,79.90 924.00,78.78 924.00,77.14 C924.00,74.37 922.98,75.14 900.00,95.40 C892.58,101.94 879.30,113.62 870.50,121.35 C861.70,129.08 850.22,139.27 845.00,143.99 C839.78,148.72 833.42,154.36 830.87,156.54 C828.32,158.72 818.42,167.49 808.87,176.03 C799.32,184.57 785.17,197.17 777.44,204.03 C765.49,214.62 729.08,247.47 693.22,280.00 C688.07,284.67 680.35,291.65 676.07,295.50 C668.73,302.09 642.21,326.55 596.50,368.87 C576.68,387.22 527.59,433.37 490.01,468.99 C426.88,528.81 375.33,578.80 310.50,643.02 L 267.50 685.63 L 261.50 684.28 C251.83,682.12 239.95,683.12 231.00,686.86 C221.00,691.05 214.53,696.14 209.28,703.99 C201.46,715.66 198.99,729.34 201.99,744.21 L 203.35 750.92 L 191.98 763.21 C185.72,769.97 179.87,776.17 178.97,777.00 C177.49,778.37 152.89,804.78 132.07,827.35 C127.43,832.38 111.64,849.33 96.98,865.00 C64.83,899.37 51.61,913.82 51.17,915.07 C49.91,918.59 58.68,912.20 94.22,883.72 ZM 526.50 877.99 C567.02,875.08 613.51,863.53 652.73,846.64 C679.34,835.17 707.03,819.07 730.98,801.12 C779.41,764.83 818.46,719.10 844.68,667.98 C865.06,628.24 876.49,591.82 884.05,542.50 C887.12,522.46 887.91,477.20 885.58,454.00 C878.88,387.02 855.88,324.43 817.31,268.25 C811.98,260.48 808.27,256.00 807.16,256.00 C806.19,256.00 797.06,264.90 786.46,276.20 C753.89,310.89 745.00,320.87 745.02,322.71 C745.04,323.70 747.99,329.00 751.58,334.50 C759.52,346.66 772.36,372.56 777.84,387.50 C786.48,411.02 792.52,437.05 795.01,461.50 C796.85,479.65 795.86,518.84 793.11,536.50 C788.05,569.01 779.29,596.61 765.03,625.00 C752.02,650.90 738.48,670.23 716.89,693.71 C707.99,703.38 690.63,719.47 683.00,725.11 C657.72,743.80 650.73,748.22 630.50,758.31 C590.78,778.12 548.59,788.19 499.50,789.56 C479.27,790.13 474.51,789.94 460.01,788.05 C439.12,785.31 426.85,782.93 410.50,778.45 C387.85,772.24 361.03,760.83 338.16,747.67 C330.82,743.45 324.26,740.00 323.57,740.00 C322.82,740.00 321.47,743.82 320.14,749.75 C316.43,766.32 307.63,779.92 294.26,789.78 C285.95,795.91 280.65,798.35 269.58,801.15 C264.86,802.35 261.00,803.84 261.00,804.47 C261.00,805.80 274.35,814.78 291.50,824.97 C328.85,847.18 376.10,864.51 423.62,873.42 C431.08,874.81 454.47,877.48 466.50,878.30 C478.22,879.10 513.58,878.91 526.50,877.99 ZM 179.47 721.05 C179.79,720.53 180.91,716.75 181.96,712.65 C185.33,699.47 191.36,689.55 201.99,679.71 C212.30,670.17 223.61,664.95 239.30,662.49 C241.39,662.16 243.35,661.26 243.64,660.50 C243.93,659.73 242.61,656.72 240.70,653.80 C218.63,620.16 202.09,577.69 195.59,538.00 C190.31,505.75 191.23,462.75 197.88,431.00 C202.49,409.02 210.81,383.88 219.07,366.97 C221.23,362.55 223.00,358.77 223.00,358.56 C223.00,357.78 237.36,333.21 241.44,327.00 C271.99,280.59 320.38,240.89 374.00,218.23 C442.67,189.22 527.05,186.60 596.00,211.35 C622.17,220.74 645.75,232.35 665.04,245.34 C668.03,247.35 671.05,249.00 671.77,249.00 C672.48,249.00 677.58,245.06 683.12,240.25 C697.15,228.04 737.76,191.19 738.51,189.99 C738.84,189.44 737.63,187.63 735.81,185.97 C732.54,182.98 704.79,164.00 703.69,164.00 C703.38,164.00 698.88,161.35 693.69,158.12 C678.50,148.65 652.37,136.34 631.59,128.88 C607.48,120.23 608.85,120.64 582.00,114.11 C557.04,108.04 531.38,105.53 494.00,105.51 C457.49,105.50 430.05,108.02 408.50,113.39 C405.20,114.21 397.55,116.08 391.50,117.55 C369.60,122.88 341.94,133.07 319.12,144.23 C285.11,160.84 256.53,179.97 229.00,204.55 C159.56,266.53 117.45,344.12 103.13,436.50 C98.98,463.26 98.40,509.04 101.87,536.00 C107.77,581.96 118.46,618.53 137.08,656.50 C149.80,682.44 157.27,695.18 170.50,713.50 C172.49,716.25 174.65,719.29 175.30,720.25 C176.59,722.17 178.55,722.54 179.47,721.05 Z" fill="rgb(254,254,254)"/>
</g>
</svg>